<?xml version="1.0" encoding="UTF-8" standalone="no"?>
<!DOCTYPE svg PUBLIC "-//W3C//DTD SVG 1.1//EN" "http://www.w3.org/Graphics/SVG/1.1/DTD/svg11.dtd">
<svg width="100%" height="100%" viewBox="0 0 640 640" version="1.1" xmlns="http://www.w3.org/2000/svg" xmlns:xlink="http://www.w3.org/1999/xlink" xml:space="preserve" xmlns:serif="http://www.serif.com/" style="fill-rule:evenodd;clip-rule:evenodd;stroke-linejoin:round;stroke-miterlimit:2;" fill="CURRENT_COLOR">
    <path d="M341.5,45.1C337.4,37.1 329.1,32 320.1,32C311.1,32 302.8,37.1 298.7,45.1L235.1,200.3L65.2,214.7C56.3,216.1 48.9,222.4 46.1,231C43.3,239.6 45.6,249 51.9,255.4L190.3,356.9L141.1,529.8C139.7,538.7 143.4,547.7 150.7,553C158,558.3 167.6,559.1 175.7,555L319.1,463.6L464.4,555C472.4,559.1 482.1,558.3 489.4,553C496.7,547.7 500.4,538.8 499,529.8L455.7,369.9L588.1,255.4C594.5,249 596.7,239.6 593.9,231C591.1,222.4 583.8,216.1 574.8,214.7L407,206.3L341.5,45.1Z" />
</svg>
